<svg id="svg" xmlns="http://www.w3.org/2000/svg" xmlns:xlink="http://www.w3.org/1999/xlink" width="400" height="400" viewBox="0, 0, 400,400"><g id="svgg"><path id="path0" d="M92.000 107.000 L 92.000 122.000 76.000 122.000 L 60.000 122.000 60.000 185.000 L 60.000 248.000 76.000 248.000 L 92.000 248.000 92.000 263.000 L 92.000 278.000 184.000 278.000 L 276.000 278.000 276.000 293.000 L 276.000 308.000 291.000 308.000 L 306.000 308.000 306.000 324.000 L 306.000 340.000 323.000 340.000 L 340.000 340.000 340.000 231.000 L 340.000 122.000 324.000 122.000 L 308.000 122.000 308.000 107.000 L 308.000 92.000 200.000 92.000 L 92.000 92.000 92.000 107.000 M306.000 200.000 L 306.000 276.000 292.000 276.000 L 278.000 276.000 278.000 261.000 L 278.000 246.000 186.000 246.000 L 94.000 246.000 94.000 185.000 L 94.000 124.000 200.000 124.000 L 306.000 124.000 306.000 200.000 " fill="currentColor" fill-rule="evenodd"></path></g></svg>