<?xml version="1.0" standalone="no"?>
<!DOCTYPE svg PUBLIC "-//W3C//DTD SVG 20010904//EN"
 "http://www.w3.org/TR/2001/REC-SVG-20010904/DTD/svg10.dtd">
<svg version="1.0" xmlns="http://www.w3.org/2000/svg"
 width="1000.000000pt" height="1000.000000pt" viewBox="0 0 1000.000000 1000.000000"
 preserveAspectRatio="xMidYMid meet">
<metadata>
Created by potrace 1.11, written by Peter Selinger 2001-2013
</metadata>
<g transform="translate(0.000000,1000.000000) scale(0.100000,-0.100000)"
fill="#000000" stroke="none">
<path d="M2660 9472 c-6 -2 -10 -53 -10 -131 l0 -127 -130 1 -130 1 0 -783 0
-783 130 0 130 0 0 -130 0 -130 520 0 c488 0 520 1 521 18 0 9 0 67 0 129 l-1
112 132 3 132 3 1 258 0 257 -55 1 c-30 0 -147 0 -260 1 l-205 0 -2 -104 c-1
-56 -2 -115 -3 -130 l0 -28 -260 0 -260 0 2 522 3 523 258 0 257 0 1 -90 c0
-49 0 -108 -1 -131 l-1 -41 259 0 c258 -1 260 -1 264 21 3 18 2 423 -1 481 -1
19 -8 20 -128 20 l-128 0 0 128 c0 77 -4 127 -10 128 -25 3 -1016 4 -1025 1z"/>
<path d="M4221 9470 c-4 -3 -7 -472 -7 -1042 l1 -1038 260 0 260 0 0 383 c-1
210 0 387 2 392 2 6 64 9 166 8 89 -1 205 -3 258 -3 l95 0 -1 -377 c0 -208 1
-384 3 -390 3 -10 64 -13 262 -13 l258 0 -1 1043 -2 1042 -259 0 -260 0 0
-390 -1 -390 -257 -2 c-191 -1 -258 2 -259 10 -1 7 -3 176 -4 377 -1 201 -3
372 -4 380 -1 13 -36 15 -252 15 -138 0 -254 -2 -258 -5z"/>
<path d="M6298 9345 l-3 -130 -127 0 -128 0 0 -30 c-1 -42 -1 -1667 0 -1737
l0 -58 260 0 260 0 0 260 0 260 260 0 260 0 0 -260 0 -260 260 0 c143 0 260 3
261 8 5 46 2 1797 -3 1805 -5 8 -48 12 -130 12 l-123 0 -2 123 c-1 68 -4 127
-8 130 -4 4 -238 7 -521 7 l-513 0 -3 -130z m780 -650 l-3 -260 -257 -1 -258
-2 0 258 c0 141 2 259 4 261 3 2 120 4 260 4 l256 0 -2 -260z"/>
<path d="M2390 5775 l0 -260 260 0 260 0 0 -782 0 -783 260 0 260 0 0 43 c1
23 1 374 1 779 1 552 4 737 12 740 7 2 123 4 259 3 212 0 247 2 250 15 3 13 2
485 -1 500 -1 3 -352 5 -781 5 l-780 0 0 -260z"/>
<path d="M4221 6030 c-8 -6 -9 -509 -1 -511 3 -1 118 -3 255 -4 138 -2 252 -3
255 -4 3 0 5 -346 4 -768 0 -423 2 -774 4 -780 3 -10 65 -13 262 -13 l257 0 0
782 0 783 259 0 259 0 0 260 0 260 -773 0 c-426 0 -777 -2 -781 -5z"/>
<path d="M6039 5975 c-2 -283 0 -447 6 -453 4 -4 178 -7 388 -7 l382 0 3 -132
3 -132 -78 0 c-43 0 -102 0 -130 0 l-53 -1 0 -129 0 -130 -102 1 c-57 0 -115
0 -130 -1 l-27 -1 -3 -127 -3 -128 -123 -2 c-68 0 -126 -4 -129 -6 -4 -4 -7
-646 -4 -759 1 -17 45 -18 781 -18 617 0 780 3 781 13 1 16 1 479 0 495 -1 9
-86 12 -391 12 l-390 0 0 130 0 130 130 0 130 0 1 73 c0 39 0 98 -1 130 l-1
57 48 1 c26 0 85 1 131 1 l82 0 1 46 c0 26 1 84 1 130 l-1 82 67 1 c37 0 95 0
130 -1 54 -1 62 1 63 17 4 84 3 763 -1 764 -3 1 -355 2 -782 3 l-778 1 -1 -60z"/>
<path d="M2390 2335 l0 -260 388 0 387 0 3 -132 3 -132 -83 0 c-46 0 -104 0
-130 0 l-48 -1 0 -131 0 -130 -57 2 c-32 1 -91 1 -130 0 l-73 -1 0 -130 0
-129 -127 1 -128 1 -3 -392 -2 -391 782 0 783 0 -1 257 0 258 -392 3 -392 2 0
130 0 130 130 0 130 0 1 33 c0 17 0 76 -1 130 -1 95 0 97 22 98 13 0 71 0 131
0 93 1 107 3 108 17 1 9 0 68 0 130 l-1 112 72 1 c40 0 99 0 131 -1 41 -1 57
2 58 12 4 52 4 746 -1 758 -4 14 -96 15 -782 15 l-778 0 0 -260z"/>
<path d="M4221 2590 c-4 -3 -7 -178 -7 -390 l1 -385 123 -2 c68 0 126 -4 130
-8 4 -3 7 -61 7 -128 l0 -122 120 -2 c66 -1 125 -2 130 -3 7 0 10 -178 10
-517 l0 -518 261 -3 261 -2 0 515 c0 283 2 517 5 520 3 3 61 7 129 8 l124 2 1
123 c1 67 3 125 6 127 3 3 61 6 130 6 l126 0 1 388 c1 362 0 389 -17 393 -9 2
-127 4 -262 3 l-244 0 0 -260 1 -260 -261 0 -261 0 0 258 c0 166 -3 257 -10
258 -34 4 -498 3 -504 -1z"/>
<path d="M6043 2587 c-4 -6 -6 -446 -4 -714 l1 -62 68 0 c37 1 95 1 130 0 l62
-1 0 -130 0 -130 108 1 c59 0 117 0 129 0 l23 -1 0 -347 c0 -192 0 -426 0
-520 l0 -173 260 0 260 0 0 63 c1 34 1 268 1 519 1 420 2 458 17 459 10 0 68
0 130 0 l112 0 1 57 c0 31 1 90 1 130 l0 72 47 1 c25 0 80 0 123 -1 51 -1 79
3 84 11 9 16 12 738 3 759 -6 13 -44 15 -261 15 l-253 0 -5 -260 -5 -260 -255
0 -255 0 -5 260 -5 260 -253 0 c-140 0 -256 -3 -259 -8z"/>
</g>
</svg>
